<svg xmlns="http://www.w3.org/2000/svg" x="0px" y="0px" width="100" height="100" viewBox="0 0 64 64">
<linearGradient id="5e0W4W4ZcNFVtVfubCaara_FI3Zar2GXu4w_gr1" x1="32" x2="32" y1="55" y2="9" gradientTransform="matrix(1 0 0 -1 0 64)" gradientUnits="userSpaceOnUse"><stop offset="0" stop-color="#1a6dff"></stop><stop offset="1" stop-color="#c822ff"></stop></linearGradient><path fill="url(#5e0W4W4ZcNFVtVfubCaara_FI3Zar2GXu4w_gr1)" d="M51,55H13c-2.206,0-4-1.794-4-4V13c0-2.206,1.794-4,4-4h38c2.206,0,4,1.794,4,4v38	C55,53.206,53.206,55,51,55z M13,11c-1.103,0-2,0.897-2,2v38c0,1.103,0.897,2,2,2h38c1.103,0,2-0.897,2-2V13c0-1.103-0.897-2-2-2H13	z"></path><linearGradient id="5e0W4W4ZcNFVtVfubCaarb_FI3Zar2GXu4w_gr2" x1="49.5" x2="49.5" y1="50.986" y2="48.01" gradientTransform="matrix(1 0 0 -1 0 64)" gradientUnits="userSpaceOnUse"><stop offset="0" stop-color="#6dc7ff"></stop><stop offset="1" stop-color="#e6abff"></stop></linearGradient><circle cx="49.5" cy="14.5" r="1.5" fill="url(#5e0W4W4ZcNFVtVfubCaarb_FI3Zar2GXu4w_gr2)"></circle><linearGradient id="5e0W4W4ZcNFVtVfubCaarc_FI3Zar2GXu4w_gr3" x1="14.591" x2="14.405" y1="50.972" y2="47.978" gradientTransform="matrix(1 0 0 -1 0 64)" gradientUnits="userSpaceOnUse"><stop offset="0" stop-color="#6dc7ff"></stop><stop offset="1" stop-color="#e6abff"></stop></linearGradient><circle cx="14.5" cy="14.5" r="1.5" fill="url(#5e0W4W4ZcNFVtVfubCaarc_FI3Zar2GXu4w_gr3)"></circle><linearGradient id="5e0W4W4ZcNFVtVfubCaard_FI3Zar2GXu4w_gr4" x1="49.589" x2="49.424" y1="16.112" y2="13.13" gradientTransform="matrix(1 0 0 -1 0 64)" gradientUnits="userSpaceOnUse"><stop offset="0" stop-color="#6dc7ff"></stop><stop offset="1" stop-color="#e6abff"></stop></linearGradient><circle cx="49.5" cy="49.5" r="1.5" fill="url(#5e0W4W4ZcNFVtVfubCaard_FI3Zar2GXu4w_gr4)"></circle><linearGradient id="5e0W4W4ZcNFVtVfubCaare_FI3Zar2GXu4w_gr5" x1="14.5" x2="14.5" y1="15.977" y2="13.14" gradientTransform="matrix(1 0 0 -1 0 64)" gradientUnits="userSpaceOnUse"><stop offset="0" stop-color="#6dc7ff"></stop><stop offset="1" stop-color="#e6abff"></stop></linearGradient><circle cx="14.5" cy="49.5" r="1.5" fill="url(#5e0W4W4ZcNFVtVfubCaare_FI3Zar2GXu4w_gr5)"></circle><linearGradient id="5e0W4W4ZcNFVtVfubCaarf_FI3Zar2GXu4w_gr6" x1="32" x2="32" y1="51.975" y2="13.011" gradientTransform="matrix(1 0 0 -1 0 64)" gradientUnits="userSpaceOnUse"><stop offset="0" stop-color="#6dc7ff"></stop><stop offset="1" stop-color="#e6abff"></stop></linearGradient><circle cx="32" cy="32" r="3" fill="url(#5e0W4W4ZcNFVtVfubCaarf_FI3Zar2GXu4w_gr6)"></circle><linearGradient id="5e0W4W4ZcNFVtVfubCaarg_FI3Zar2GXu4w_gr7" x1="32" x2="32" y1="51.975" y2="13.011" gradientTransform="matrix(1 0 0 -1 0 64)" gradientUnits="userSpaceOnUse"><stop offset="0" stop-color="#6dc7ff"></stop><stop offset="1" stop-color="#e6abff"></stop></linearGradient><path fill="url(#5e0W4W4ZcNFVtVfubCaarg_FI3Zar2GXu4w_gr7)" d="M32,13c-10.493,0-19,8.507-19,19s8.507,19,19,19s19-8.507,19-19S42.493,13,32,13z M45.381,36.823L45.381,36.823c-2.824,0.037-5.605-0.693-8.045-2.114l-0.869-0.506c-0.256,0.518-0.588,0.99-1,1.387l0.954,1.128	c1.582,1.87,3.616,3.304,5.909,4.165c1.119,0.42,1.373,1.889,0.461,2.661c-1.724,1.458-3.698,2.59-5.827,3.342	c-0.923,0.326-1.949-0.045-2.45-0.887c-1.444-2.427-2.202-5.2-2.192-8.024l0.004-1.008C32.216,36.974,32.111,37,32,37	c-0.479,0-0.933-0.089-1.371-0.215l-0.504,1.403c-0.829,2.305-1.053,4.783-0.653,7.2c0.196,1.179-0.949,2.134-2.074,1.729	c-2.125-0.764-4.092-1.908-5.808-3.375c-0.744-0.637-0.935-1.71-0.457-2.565c1.379-2.464,3.403-4.507,5.853-5.91l0.858-0.491	c-0.315-0.471-0.539-1.004-0.68-1.569l-1.46,0.263c-2.41,0.435-4.669,1.479-6.561,3.035c-0.923,0.759-2.322,0.245-2.535-0.931l0,0	c-0.401-2.222-0.394-4.498,0.019-6.718c0.179-0.963,1.013-1.665,1.992-1.678l0,0c2.824-0.037,5.605,0.693,8.045,2.114l0.869,0.506	c0.256-0.518,0.588-0.99,1-1.387l-0.954-1.128c-1.582-1.87-3.616-3.304-5.909-4.165c-1.119-0.42-1.373-1.889-0.461-2.661	c1.724-1.458,3.698-2.59,5.827-3.342c0.923-0.326,1.949,0.045,2.45,0.886c1.444,2.427,2.202,5.2,2.192,8.024l-0.004,1.008	C31.784,27.026,31.889,27,32,27c0.479,0,0.933,0.089,1.371,0.215l0.504-1.403c0.829-2.305,1.053-4.783,0.653-7.199l0,0	c-0.196-1.179,0.949-2.134,2.074-1.729c2.125,0.764,4.092,1.908,5.808,3.375c0.744,0.637,0.935,1.71,0.457,2.565	c-1.379,2.464-3.403,4.507-5.853,5.91l-0.858,0.491c0.315,0.471,0.539,1.004,0.68,1.569l1.46-0.263	c2.41-0.435,4.669-1.479,6.561-3.035c0.923-0.759,2.322-0.245,2.535,0.932c0.401,2.222,0.394,4.498-0.019,6.718	C47.194,36.108,46.36,36.81,45.381,36.823z"></path>
</svg>